<svg xmlns="http://www.w3.org/2000/svg" viewBox="0 0 1024 1024"><path d="M480 61.676c-65.352 3.638-138.815 25.227-196 57.6-11.861 6.715-27 16.474-27 17.405 0 .237 2.137 1.368 4.75 2.512 14.222 6.231 42.394 31.71 48.988 44.307 5.495 10.494 4.881 10.123 12.522 7.58 3.624-1.206 7.106-2.816 7.737-3.577 1.435-1.729-1.38-8.514-6.475-15.605l-3.469-4.829 6.723-1.972c32.582-9.556 57.173-11.806 78.724-7.203 11.98 2.559 26.998 6.779 30.323 8.521l2.402 1.259-2.934 3.413c-8.126 9.454-8.169 11.028-.366 13.39 7.393 2.239 8.071 1.964 11.901-4.822 9.554-16.93 30.233-34.024 46.145-38.148 25.494-6.606 44.109 5.197 49.67 31.493 2.418 11.433 2.48 36.884.12 49.5-2.313 12.364-9.761 30.151-9.761 23.31 0-.654-2.312-3.326-5.137-5.937l-5.138-4.748 1.787-6.812c2.295-8.75 3.114-29.676 1.528-39.076-2.24-13.282-10.827-26.014-17.793-26.382-14.95-.791-25.126 4.922-39.651 22.261-4.728 5.644-8.596 10.778-8.596 11.409 0 .631 2.601 1.87 5.781 2.754 11.487 3.194 38.237 29.194 52.698 51.221 21.515 32.772 26.077 48.378 23.968 82l-.69 11-7.628 3.737c-13.344 6.536-20.277 11.78-34.636 26.198-14.424 14.485-15.155 15.48-30.676 41.762-19.022 32.21-28.896 39.661-60.709 45.811-9.418 1.821-17.405 3.028-17.751 2.682-1.119-1.119 2.629-5.69 4.666-5.69 2.193 0 2.54-1.037.898-2.679-.594-.594-1.509-2.992-2.035-5.331-1.51-6.723.144-10.107 7.015-14.348 14.951-9.229 22.589-26.208 16.511-36.706-8.069-13.936-39.102-17.863-55.473-7.019-15.981 10.586-11.123 31.762 10.061 43.853 8.596 4.906 9.786 7.664 6.394 14.813-6.421 13.531-36.628 8.633-56.586-9.176-10.288-9.179-19.186-13.709-40.291-20.507-12.951-4.172-21.531-7.583-27-10.733-26.918-15.504-44.949-51.465-44.961-89.667-.007-19.581 1.256-25.168 9.493-42 14.633-29.902 21.691-40.528 36.886-55.539 14.879-14.698 22.735-20.004 34.908-23.575 2.649-.778-8.235-16.649-17.501-25.522-12.791-12.248-27.567-15.952-37.476-9.394-10.29 6.809-14.653 32.459-10.364 60.919 1.487 9.862 1.485 9.894-.756 12.101-1.235 1.217-3.996 5.034-6.136 8.482l-3.89 6.268-1.197-2.87c-7.317-17.536-9.437-29.656-9.513-54.37-.056-18.431.146-18.327-11.882-6.13-84.423 85.612-132.212 208.921-129.84 335.023.296 15.734 1.005 31.532 1.574 35.107.57 3.575 1.779 12.125 2.688 19 2.7 20.416 12.262 61.766 18.27 79 3.73 10.7 21.351 54.395 24.258 60.155 26.073 51.65 63.635 101.432 102.512 135.859 112.842 99.93 275.616 136.433 422.851 94.827 62.631-17.698 121.569-48.458 165.006-86.116 50.075-43.413 80.734-82.379 108.367-137.725 45.51-91.152 60.845-182.62 46.729-278.719-16.696-113.662-77.415-222.37-161.043-288.322C706.95 87.914 598.564 55.077 480 61.676m-77.5 110.218c-6.584 2.864-8.364 12.697-3.227 17.833 3.988 3.988 11.466 3.988 15.454 0 8.189-8.189-1.594-22.457-12.227-17.833m165.829 26.677c-.203 11.355-1.424 19.512-5.498 36.708-2.478 10.464-2.797 13.057-1.76 14.307.875 1.054.909 1.432.11 1.22-.637-.168-2.895 3.228-5.018 7.547l-3.859 7.852 2.89 5.337c5.631 10.396 9.539 27.43 10.499 45.755.537 10.264.825 11.713 2.212 11.146 3.369-1.376 8.023-2.561 20.095-5.118 43.382-9.186 83.883 1.289 121.631 31.459 11.243 8.986 13.709 11.685 15.424 16.881 1.432 4.341.557 5.382-6.483 7.707-8.671 2.864-10.496 2.386-19.229-5.047-43.361-36.902-91.568-43.282-140.752-18.629-67.455 33.813-93.641 110.336-64.599 188.782 5.456 14.739 6.129 18.181 3.258 16.673-.962-.505-3.775-1.25-6.25-1.655-6.359-1.04-11.233-3.772-15.157-8.496-4.07-4.9-7.561-6.227-23.485-8.925-28.18-4.774-55.527-4.348-49.808.776 1.397 1.252 63.877 22.527 78.45 26.714 6.875 1.975 16.1 4.674 20.5 5.997 7.561 2.274 24.123 5.969 40.245 8.98 14.427 2.694 30.448 3.61 43.444 2.484 24.412-2.117 52.155-8.086 62.565-13.462 2.61-1.348 7.221-3.414 10.246-4.592 13.501-5.253 24.785-12.554 40.53-26.222 9.041-7.849 13.959-8.917 20.565-4.465 6.319 4.258 4.503 8.16-10.39 22.333-23.864 22.71-45.207 34.015-82.705 43.807-29.153 7.613-68.643 7.834-100.888.563-28.457-6.416-84.426-24.209-106.004-33.699-1.112-.489-1.252.132-.696 3.093 1.948 10.384-2.174 10.406-17.938.094-19.536-12.779-33.427-48.046-29.029-73.702 1.062-6.201-1.052-7.241-10.636-5.232-39.021 8.18-73.803 42.13-92.366 90.159-12.866 33.29-9.733 76.033 8.672 118.299 3.233 7.425 5.88 14.881 5.882 16.568.005 5.298 2.835 12.898 6.741 18.109 29.585 39.467 32.761 42.629 56.923 56.671l11.162 6.486.665-5.732c1.026-8.841.945-8.811 11.621-4.277 12.007 5.1 17.126 6.521 34.891 9.686 29.65 5.283 31 5.891 31 13.965 0 8.837-4.178 11.009-23.34 12.133-27.862 1.636-7.167 11.636 31.764 15.349 32.58 3.108 83.367-.759 117.148-8.918 82.76-19.99 158.557-84.659 185.236-158.04 10.984-30.213 17.063-74.127 12.832-92.697-4.221-18.523-1.206-29.303 8.194-29.303 5.223 0 8.413 3.692 11.05 12.791 9.334 32.199 5.8 72.506-10.361 118.157l-1.574 4.449 2.275-2.049c1.252-1.127 6.389-5.483 11.417-9.68 38.033-31.752 64.557-87.69 69.446-146.457 3.768-45.289-9.505-111.996-30.729-154.445C792.625 323.3 739.829 268.802 683 236.013c-4.125-2.38-11.55-6.697-16.5-9.593-16.836-9.849-45.322-22.184-67.5-29.229-5.544-1.761-29.307-8.202-30.2-8.185-.165.003-.377 4.307-.471 9.565M270.972 314.533c-.699.843-1.491 3.818-1.76 6.611l-.488 5.077 6.888 6.497c13.291 12.536 34.395 19.184 50.345 15.858 13.558-2.827 18.262-7.612 14.848-15.104-1.933-4.242-5.639-5.538-13.991-4.891-13.667 1.059-29.042-3.054-41.44-11.085-7.275-4.713-12.121-5.71-14.402-2.963m211.1 2.104c-12.012 8.09-24.057 11.762-43.42 13.237-11.93.908-12.612 1.302-12.637 7.298-.02 4.825 5.865 10.12 13.205 11.881 14.461 3.469 39.169-4.646 52.03-17.088 6.892-6.668 7.393-9.516 2.677-15.237-3.815-4.629-5.101-4.639-11.855-.091m-291.247 56.806c-28.105 11.678-38.549 38.155-18.825 47.726 9.221 4.474 10.895 4.608 11.631.927.826-4.129 3.326-4.665 12.71-2.724 8.08 1.671 13.193 1.265 24.68-1.958 7.911-2.22 7.899-2.075.871-10.036-7.463-8.455-13.377-17.308-18.788-28.128-4.595-9.187-4.385-9.088-12.279-5.807m188.472 26.543c-9.263 1.969-10.571 4.869-3.797 8.413 7.789 4.076 26.631 1.35 28.269-4.09 1.049-3.483-15.047-6.326-24.472-4.323m-145.13 35.115c-39.091 8.207-58.828 22.807-58.448 43.234.164 8.829 2.685 12.802 11.368 17.915 8.627 5.081 11.312 5.069 10.448-.045-.767-4.536.648-8.715 4.216-12.455 5.397-5.657 12.663-2.586 16.98 7.178 3.07 6.944 3.428 7.16 10.769 6.523 3.3-.286 19.422-1.176 35.827-1.978 27.587-1.348 30.367-1.653 37-4.055 13.369-4.84 35.15-11.412 39.923-12.045 6.432-.854 6.052-1.471-3.281-5.325-7.398-3.054-15.515-8.422-31.639-20.925-5.548-4.302-8.527-5.557-29.538-12.454-26.218-8.604-28.048-8.838-43.625-5.568m223.113 27.317c-9.416 7.923-33.235 17.849-50.78 21.162-4.95.935-9.562 1.847-10.25 2.028-.773.204-1.263 2.153-1.285 5.111-.019 2.629-.679 7.706-1.465 11.281-1.448 6.584-2.013 20.154-.885 21.281.338.338 1.705-.1 3.038-.973 3.813-2.499 13.084-4.276 22.347-4.284 10.711-.01 43.521 3.944 46.136 5.56.816.504 1.006.228.589-.858-2.549-6.643-5.051-39.823-4.058-53.816.701-9.872.679-9.913-3.387-6.492" fill-rule="evenodd"/></svg>